# xmcd
#
# Track frame offsets: 
#        150
#        14750
#        33694
#        51541
#        68948
#        84352
#        100286
#        115114
#        131219
#        149620
#        164966
#        179915
#        198750
#        215933
#
# Disc length: 3093 seconds
#
# Revision: 0
# Processed by: cddbd v1.5.2PL0 Copyright (c) Steve Scherf et al.
# Submitted via: ExactAudioCopyFreeDBPlugin 1.0
#
DISCID=ec0c130e
DTITLE=Sheryl Crow - Feels Like Home (Deluxe Edition)
DYEAR=2013
DGENRE=Country
TTITLE0=Shotgun
TTITLE1=Easy
TTITLE2=Give It to Me (feat. Vince Gill and Ashley Monroe)
TTITLE3=We Oughta Be Drinkin'
TTITLE4=Callin' Me When I'm Lonely
TTITLE5=Waterproof Mascara
TTITLE6=Crazy Ain't Original
TTITLE7=Nobody's Business
TTITLE8=Homesick (feat. Zac Brown)
TTITLE9=Homecoming Queen
TTITLE10=Best of Times
TTITLE11=Stay at Home Mother
TTITLE12=This Is You (That Was Then)
TTITLE13=You're Asking the Wrong Person
EXTD=
EXTT0=
EXTT1=
EXTT2=
EXTT3=
EXTT4=
EXTT5=
EXTT6=
EXTT7=
EXTT8=
EXTT9=
EXTT10=
EXTT11=
EXTT12=
EXTT13=
PLAYORDER=
